<svg xmlns="http://www.w3.org/2000/svg" viewBox="0 0 735.68 596"><defs><style>.cls-1{fill:#7e6bc4;}.cls-2{fill:#fdfdff;}</style></defs><title>Logo</title><g id="Layer_2" data-name="Layer 2"><g id="Layer_1-2" data-name="Layer 1"><circle class="cls-1" cx="311.67" cy="243.31" r="239.84"/><path class="cls-1" d="M540,253.77S552.4,82.13,607,19.89c0,0-67.37-26.74-137.84,124.75"/><path class="cls-1" d="M229.9,381.22S72.8,337.31,0,368.77c0,0-2.57-72.37,154.87-89.85"/><path class="cls-1" d="M264.91,445.89S112,403.14,41.09,433.77c0,0-2.5-70.46,150.77-87.47"/><path class="cls-1" d="M522,243.31S491.4,74,528.86.09c0,0-71.9-9.16-102.52,155.09"/><path class="cls-1" d="M520.63,360s91.44-214.95,215-241.1c0,0-110.85-105.11-298.91,23.13"/><path class="cls-1" d="M337.05,481.89S157,504.94,114.73,596c0,0-59.95-110.77,71.62-229.26"/><path class="cls-2" d="M435.61,183a133.65,133.65,0,1,0-73.93,174A133.65,133.65,0,0,0,435.61,183ZM339.26,301.43a73.74,73.74,0,1,1,40.79-96A73.73,73.73,0,0,1,339.26,301.43Z"/><rect class="cls-2" x="385.42" y="233.05" width="59.93" height="154.2"/></g></g></svg>